<svg width="135" height="135" viewBox="0 0 135 135" fill="none" xmlns="http://www.w3.org/2000/svg">
<path d="M67.5 130C102.018 130 130 102.018 130 67.5C130 32.9822 102.018 5 67.5 5C32.9822 5 5 32.9822 5 67.5C5 102.018 32.9822 130 67.5 130Z" fill="#1890FF" stroke="white" stroke-width="10"/>
<path d="M67.1 104C62.5667 104 58.25 103.25 54.15 101.75C50.0833 100.217 46.65 97.95 43.85 94.95C41.0833 91.95 39.4 88.2333 38.8 83.8H48.5C49.4 87.9 51.5833 91.0167 55.05 93.15C58.5167 95.25 62.5167 96.3 67.05 96.3C72.15 96.3 76.3833 95.25 79.75 93.15C83.15 91.0167 84.85 88.1167 84.85 84.45C84.85 81.1833 83.75 78.5833 81.55 76.65C79.3833 74.6833 76.3 73.2333 72.3 72.3L58.1 69C52.7667 67.8333 48.5833 65.75 45.55 62.75C42.55 59.75 41.0167 55.7833 40.95 50.85C40.95 46.6833 42.05 43.0167 44.25 39.85C46.45 36.6833 49.5 34.2167 53.4 32.45C57.3 30.6833 61.75 29.8 66.75 29.8C72.5167 29.8 77.3667 30.7833 81.3 32.75C85.2333 34.7167 88.2 37.3 90.2 40.5C92.2 43.7 93.2167 47.1167 93.25 50.75H83.7C83.4 47.4833 82.4333 44.9 80.8 43C79.2 41.0667 77.1667 39.7 74.7 38.9C72.2667 38.0667 69.6333 37.65 66.8 37.65C64.0667 37.65 61.4667 38.1167 59 39.05C56.5667 39.9833 54.5667 41.3667 53 43.2C51.4667 45 50.7 47.25 50.7 49.95C50.7 52.5833 51.5833 54.7167 53.35 56.35C55.1167 57.95 58.3667 59.3333 63.1 60.5L76.85 63.8C81.65 64.8333 85.3 66.4833 87.8 68.75C90.3 70.9833 92 73.4833 92.9 76.25C93.8333 79.0167 94.3 81.7167 94.3 84.35C94.3 87.9833 93.2167 91.2833 91.05 94.25C88.9167 97.2167 85.8167 99.5833 81.75 101.35C77.6833 103.117 72.8 104 67.1 104Z" fill="white"/>
</svg>
