<svg width="526" height="143" viewBox="0 0 526 143" fill="none" xmlns="http://www.w3.org/2000/svg">
<g filter="url(#filter0_d)">
<circle cx="71.5" cy="67.5" r="62.5" fill="#FFF8F8" stroke="#1890FF" stroke-width="10"/>
<path d="M75.1 105C70.5667 105 66.25 104.25 62.15 102.75C58.0833 101.217 54.65 98.95 51.85 95.95C49.0833 92.95 47.4 89.2333 46.8 84.8H56.5C57.4 88.9 59.5833 92.0167 63.05 94.15C66.5167 96.25 70.5167 97.3 75.05 97.3C80.15 97.3 84.3833 96.25 87.75 94.15C91.15 92.0167 92.85 89.1167 92.85 85.45C92.85 82.1833 91.75 79.5833 89.55 77.65C87.3833 75.6833 84.3 74.2333 80.3 73.3L66.1 70C60.7667 68.8333 56.5833 66.75 53.55 63.75C50.55 60.75 49.0167 56.7833 48.95 51.85C48.95 47.6833 50.05 44.0167 52.25 40.85C54.45 37.6833 57.5 35.2167 61.4 33.45C65.3 31.6833 69.75 30.8 74.75 30.8C80.5167 30.8 85.3667 31.7833 89.3 33.75C93.2333 35.7167 96.2 38.3 98.2 41.5C100.2 44.7 101.217 48.1167 101.25 51.75H91.7C91.4 48.4833 90.4333 45.9 88.8 44C87.2 42.0667 85.1667 40.7 82.7 39.9C80.2667 39.0667 77.6333 38.65 74.8 38.65C72.0667 38.65 69.4667 39.1167 67 40.05C64.5667 40.9833 62.5667 42.3667 61 44.2C59.4667 46 58.7 48.25 58.7 50.95C58.7 53.5833 59.5833 55.7167 61.35 57.35C63.1167 58.95 66.3667 60.3333 71.1 61.5L84.85 64.8C89.65 65.8333 93.3 67.4833 95.8 69.75C98.3 71.9833 100 74.4833 100.9 77.25C101.833 80.0167 102.3 82.7167 102.3 85.35C102.3 88.9833 101.217 92.2833 99.05 95.25C96.9167 98.2167 93.8167 100.583 89.75 102.35C85.6833 104.117 80.8 105 75.1 105Z" fill="#1890FF"/>
<path d="M151.65 107V32.7H160.65V62.9C161.95 60.7667 163.933 58.8667 166.6 57.2C169.267 55.5 172.667 54.65 176.8 54.65C180.167 54.65 183.217 55.2833 185.95 56.55C188.683 57.7833 190.85 59.55 192.45 61.85C194.05 64.15 194.85 66.8833 194.85 70.05V107H185.6V71.9C185.6 68.8 184.533 66.4167 182.4 64.75C180.3 63.05 177.55 62.2 174.15 62.2C171.817 62.2 169.633 62.5833 167.6 63.35C165.6 64.0833 163.967 65.2167 162.7 66.75C161.467 68.25 160.85 70.1667 160.85 72.5V107H151.65ZM223.372 108C218.339 108 214.239 106.683 211.072 104.05C207.905 101.417 206.322 97.7333 206.322 93C206.322 87.2667 208.322 83 212.322 80.2C216.322 77.4 222.739 75.9 231.572 75.7L240.822 75.45V71.4C240.822 68.2333 239.855 65.7333 237.922 63.9C236.022 62.0333 233.089 61.1 229.122 61.1C226.155 61.1333 223.539 61.85 221.272 63.25C219.005 64.6167 217.555 66.8333 216.922 69.9H208.772C209.039 64.8667 211.005 61.0167 214.672 58.35C218.339 55.65 223.305 54.3 229.572 54.3C236.305 54.3 241.339 55.7167 244.672 58.55C248.039 61.3833 249.722 65.5 249.722 70.9V107H241.822L241.172 97.3C239.139 101.333 236.589 104.133 233.522 105.7C230.455 107.233 227.072 108 223.372 108ZM226.172 101.35C228.472 101.35 230.739 100.8 232.972 99.7C235.239 98.6 237.105 97.2 238.572 95.5C240.039 93.7667 240.789 91.9333 240.822 90V81.15L233.122 81.3C227.189 81.4 222.739 82.2833 219.772 83.95C216.805 85.5833 215.322 88.3 215.322 92.1C215.322 95.0333 216.322 97.3167 218.322 98.95C220.355 100.55 222.972 101.35 226.172 101.35ZM265.517 107V55.3H274.317V65.25C275.617 61.55 277.667 58.8 280.467 57C283.301 55.2 286.351 54.3 289.617 54.3C290.384 54.3 291.117 54.35 291.817 54.45C292.551 54.55 293.134 54.7167 293.567 54.95V63.9C293.067 63.6667 292.417 63.5167 291.617 63.45C290.851 63.35 290.201 63.3 289.667 63.3C285.567 63.0333 282.051 63.8167 279.117 65.65C276.184 67.4833 274.717 70.55 274.717 74.85V107H265.517ZM309.715 83.3C309.715 86.5667 310.248 89.5333 311.315 92.2C312.415 94.8333 314.065 96.9333 316.265 98.5C318.498 100.067 321.282 100.85 324.615 100.85C327.915 100.85 330.748 100.083 333.115 98.55C335.515 97.0167 337.048 94.8 337.715 91.9H346.465C345.832 95.4 344.432 98.35 342.265 100.75C340.098 103.15 337.482 104.967 334.415 106.2C331.348 107.4 328.148 108 324.815 108C319.982 108 315.732 106.95 312.065 104.85C308.398 102.75 305.532 99.7333 303.465 95.8C301.398 91.8667 300.365 87.15 300.365 81.65C300.365 76.2167 301.298 71.45 303.165 67.35C305.032 63.25 307.732 60.05 311.265 57.75C314.832 55.45 319.115 54.3 324.115 54.3C331.415 54.3 337.015 56.6167 340.915 61.25C344.815 65.85 346.765 72.0667 346.765 79.9V83.3H309.715ZM309.765 77.05H337.865C337.865 72.6167 336.732 68.8833 334.465 65.85C332.198 62.8167 328.732 61.3 324.065 61.3C320.832 61.3 318.148 62.0833 316.015 63.65C313.882 65.1833 312.298 67.1667 311.265 69.6C310.232 72 309.732 74.4833 309.765 77.05ZM388.613 108C382.179 108 376.613 106.567 371.913 103.7C367.213 100.8 363.579 96.6 361.013 91.1C358.479 85.5667 357.213 78.8667 357.213 71C357.213 63.1 358.496 56.3833 361.063 50.85C363.629 45.2833 367.263 41.0333 371.963 38.1C376.663 35.1667 382.213 33.7 388.613 33.7C395.013 33.7 400.546 35.1667 405.213 38.1C409.879 41 413.479 45.2333 416.013 50.8C418.546 56.3667 419.813 63.1 419.813 71C419.813 78.8333 418.546 85.5167 416.013 91.05C413.513 96.55 409.929 100.75 405.263 103.65C400.596 106.55 395.046 108 388.613 108ZM388.613 99.95C395.313 99.95 400.496 97.6333 404.163 93C407.829 88.3667 409.663 81.0667 409.663 71.1C409.663 61 407.813 53.5833 404.113 48.85C400.413 44.1167 395.246 41.75 388.613 41.75C382.013 41.75 376.829 44.1333 373.063 48.9C369.296 53.6667 367.413 61.0667 367.413 71.1C367.413 81.0667 369.296 88.3667 373.063 93C376.829 97.6333 382.013 99.95 388.613 99.95ZM432.216 107V55.3H441.016V65.25C442.316 61.55 444.366 58.8 447.166 57C450 55.2 453.05 54.3 456.316 54.3C457.083 54.3 457.816 54.35 458.516 54.45C459.25 54.55 459.833 54.7167 460.266 54.95V63.9C459.766 63.6667 459.116 63.5167 458.316 63.45C457.55 63.35 456.9 63.3 456.366 63.3C452.266 63.0333 448.75 63.8167 445.816 65.65C442.883 67.4833 441.416 70.55 441.416 74.85V107H432.216ZM496.536 108C492.503 108 489.286 107.317 486.886 105.95C484.486 104.583 482.686 102.983 481.486 101.15C480.286 99.3167 479.469 97.7333 479.036 96.4L478.036 107H470.986V32.7H480.286V63.5C480.853 62.3667 481.836 61.0833 483.236 59.65C484.636 58.2167 486.486 56.9667 488.786 55.9C491.119 54.8333 493.936 54.3 497.236 54.3C503.703 54.3 508.836 56.55 512.636 61.05C516.469 65.55 518.386 72.1833 518.386 80.95C518.386 89.0833 516.553 95.6333 512.886 100.6C509.253 105.533 503.803 108 496.536 108ZM494.886 100.9C499.053 100.9 502.453 99.2833 505.086 96.05C507.753 92.7833 509.086 87.6 509.086 80.5C509.086 74.4667 507.853 69.8 505.386 66.5C502.953 63.1667 499.386 61.5 494.686 61.5C489.553 61.5 485.886 63.1667 483.686 66.5C481.486 69.8 480.353 74.4667 480.286 80.5C480.286 87.7333 481.403 92.95 483.636 96.15C485.903 99.3167 489.653 100.9 494.886 100.9Z" fill="#1890FF"/>
</g>
<defs>
<filter id="filter0_d" x="0" y="0" width="522.386" height="143" filterUnits="userSpaceOnUse" color-interpolation-filters="sRGB">
<feFlood flood-opacity="0" result="BackgroundImageFix"/>
<feColorMatrix in="SourceAlpha" type="matrix" values="0 0 0 0 0 0 0 0 0 0 0 0 0 0 0 0 0 0 127 0"/>
<feOffset dy="4"/>
<feGaussianBlur stdDeviation="2"/>
<feColorMatrix type="matrix" values="0 0 0 0 0 0 0 0 0 0 0 0 0 0 0 0 0 0 0.25 0"/>
<feBlend mode="normal" in2="BackgroundImageFix" result="effect1_dropShadow"/>
<feBlend mode="normal" in="SourceGraphic" in2="effect1_dropShadow" result="shape"/>
</filter>
</defs>
</svg>
